<svg width="26" height="26" viewBox="0 0 26 26" fill="none" xmlns="http://www.w3.org/2000/svg">
<path fill-rule="evenodd" clip-rule="evenodd" d="M2.002 6.22531C2.3101 3.11271 4.99916 0.866699 8.07041 0.866699H18.7896C21.8433 0.866699 24.5257 3.08736 24.8486 6.18319C25.2293 9.83282 25.2285 12.9162 24.8447 16.6013C24.5222 19.7002 21.8394 21.9267 18.7814 21.9267H12.2231L6.71165 24.2075C6.5709 24.2658 6.41615 24.2816 6.26651 24.253C6.11686 24.2244 5.97887 24.1526 5.86957 24.0465C5.76027 23.9403 5.68445 23.8045 5.65147 23.6557C5.6185 23.507 5.6298 23.3518 5.684 23.2095L6.27251 21.6619C4.01167 20.981 2.25004 19.0458 2.00434 16.5619C1.64398 12.9193 1.64281 9.85466 2.002 6.22531ZM8.12501 13.1755C7.97617 13.0318 7.77635 12.9532 7.56951 12.9568C7.36268 12.9605 7.16576 13.0462 7.02209 13.195C6.87842 13.3439 6.79976 13.5437 6.80342 13.7505C6.80708 13.9573 6.89275 14.1543 7.04159 14.2979C10.5746 17.7097 16.292 17.7097 19.825 14.2979C19.9739 14.1543 20.0596 13.9573 20.0632 13.7505C20.0669 13.5437 19.9882 13.3439 19.8445 13.195C19.7009 13.0462 19.504 12.9605 19.2971 12.9568C19.0903 12.9532 18.8905 13.0318 18.7416 13.1755C15.8127 16.0038 11.0539 16.0038 8.12501 13.1755ZM9.14331 6.71671C9.35017 6.71671 9.54857 6.79889 9.69485 6.94517C9.84113 7.09145 9.92331 7.28984 9.92331 7.49671V8.27671C9.92331 8.48358 9.84113 8.68198 9.69485 8.82826C9.54857 8.97454 9.35017 9.05672 9.14331 9.05672C8.93644 9.05672 8.73804 8.97454 8.59176 8.82826C8.44548 8.68198 8.3633 8.48358 8.3633 8.27671V7.49671C8.3633 7.28984 8.44548 7.09145 8.59176 6.94517C8.73804 6.79889 8.93644 6.71671 9.14331 6.71671ZM18.5033 7.49671C18.5033 7.28984 18.4211 7.09145 18.2749 6.94517C18.1286 6.79889 17.9302 6.71671 17.7233 6.71671C17.5165 6.71671 17.3181 6.79889 17.1718 6.94517C17.0255 7.09145 16.9433 7.28984 16.9433 7.49671V8.27671C16.9433 8.48358 17.0255 8.68198 17.1718 8.82826C17.3181 8.97454 17.5165 9.05672 17.7233 9.05672C17.9302 9.05672 18.1286 8.97454 18.2749 8.82826C18.4211 8.68198 18.5033 8.48358 18.5033 8.27671V7.49671Z" fill="#9D9AC4"/>
</svg>
