<svg width="26" height="26" viewBox="0 0 26 26" fill="none" xmlns="http://www.w3.org/2000/svg">
<path d="M9.13018 22.3101C11.4179 20.7659 13.9095 18.6673 16.3357 16.2411C18.7393 13.8375 20.8242 11.3665 22.3647 9.09513L22.6372 8.69345C22.6333 8.6848 22.6296 8.67601 22.6257 8.66737C24.2979 6.13441 25.8646 2.96966 24.4486 1.5537C23.7382 0.843281 22.525 0.816495 20.8425 1.47415C20.0542 1.78241 19.1711 2.23494 18.207 2.82304C18.735 3.13267 19.2387 3.48445 19.7098 3.8758L20.4682 4.50582L20.1366 5.43433C19.7366 6.55466 18.9199 7.92856 17.7093 9.51787C16.6329 10.931 15.2877 12.4547 13.8191 13.9241C12.3456 15.3984 10.8263 16.7395 9.42557 17.8023C7.83767 19.0072 6.46763 19.8078 5.35359 20.1822L4.43608 20.4905L3.81879 19.7449C3.43552 19.2814 3.08983 18.7881 2.78502 18.2697C2.21586 19.2087 1.77606 20.0708 1.4739 20.8427C0.816348 22.5251 0.843086 23.7383 1.55351 24.4487C1.94048 24.8357 2.45815 24.9996 3.05786 24.9996C4.61427 24.9996 6.72171 23.8949 8.52342 22.7196L9.13018 22.3101Z" fill="#9D9AC4"/>
<path d="M4.90468 18.8458C8.93798 17.4905 17.3495 9.04751 18.8091 4.96016C18.2177 4.4689 17.5709 4.04844 16.8819 3.70736C15.5643 3.05465 14.0793 2.68811 12.5094 2.68811C12.2345 2.68811 11.9619 2.69939 11.6926 2.72147C6.88961 3.1148 3.06025 6.94838 2.67351 11.7533C2.65189 12.0183 2.64108 12.2862 2.64108 12.5564C2.64108 14.132 3.00997 15.6212 3.66691 16.9421C4.00485 17.6222 4.42019 18.261 4.90468 18.8458ZM8.72492 10.2287H10.1347V11.6384H8.72492V10.2287ZM5.90541 11.6384H7.31517V13.0482H5.90541V11.6384ZM22.7962 10.9307C21.3053 12.9751 19.4363 15.1343 17.3326 17.2379C15.2072 19.3633 13.0273 21.2474 10.9656 22.7449C11.9432 23.0878 12.9693 23.261 14.0292 23.261C15.4637 23.261 16.8232 22.9337 18.0369 22.35C18.9229 21.8688 19.7447 21.2573 20.4775 20.5245C21.4589 19.5431 22.2231 18.4025 22.747 17.1612C23.1099 16.1691 23.3082 15.0983 23.3082 13.9821C23.3082 12.9268 23.1364 11.9049 22.7962 10.9307ZM19.514 19.768H18.1042V18.3583H19.514V19.768Z" fill="#9D9AC4"/>
</svg>
