<svg width="26" height="26" viewBox="0 0 26 26" fill="none" xmlns="http://www.w3.org/2000/svg">
<g clip-path="url(#clip0_4138_844)">
<path d="M6.16297 0.0460975C5.92952 0.0407805 5.69991 0.106095 5.50421 0.233486C5.30851 0.360877 5.15585 0.544404 5.06623 0.760028C4.9766 0.975652 4.95419 1.21332 5.00193 1.44189C5.04966 1.67047 5.16533 1.8793 5.33376 2.04103L7.08895 3.79622L8.61539 5.32266L9.51058 6.21785H5.39315C3.69075 6.21785 2.29408 7.36598 1.39669 8.88582C0.499298 10.4057 1.52588e-05 12.383 1.52588e-05 14.5539V17.6684C1.52588e-05 19.8392 0.501497 21.8122 1.39889 23.3342C2.29628 24.8541 3.69295 26 5.39535 26H20.2067C21.9091 26 23.3079 24.8541 24.2075 23.3342C25.1049 21.8122 25.6064 19.837 25.6064 17.6684V14.5539C25.6064 12.3808 25.1049 10.4057 24.2075 8.88582C23.3101 7.36598 21.9091 6.21785 20.2067 6.21785H16.0936L16.9888 5.32266L18.5153 3.79622L20.2705 2.04103C20.3901 1.93578 20.4869 1.80711 20.5549 1.66297C20.6229 1.51883 20.6606 1.36229 20.6657 1.20301C20.6708 1.04373 20.6432 0.885091 20.5845 0.736903C20.5259 0.588714 20.4375 0.45412 20.3248 0.341433C20.2121 0.228747 20.0776 0.140362 19.9294 0.0817391C19.7812 0.0231161 19.6225 -0.0045002 19.4633 0.000596322C19.304 0.00569284 19.1474 0.0433939 19.0033 0.111371C18.8592 0.179347 18.7305 0.276156 18.6252 0.395815L16.87 2.151L15.3436 3.67744L12.801 6.21785L10.2606 3.67744L8.73416 2.151L6.97897 0.395815C6.87279 0.286364 6.74606 0.198939 6.60603 0.138551C6.46601 0.0781625 6.31544 0.0481967 6.16297 0.0460975Z" fill="url(#paint0_linear_4138_844)"/>
<path d="M4.46378 20V14.1818H5.87003V18.858H8.29048V20H4.46378ZM10.4247 14.1818V20H9.01847V14.1818H10.4247ZM12.6286 14.1818L13.9297 18.4432H13.978L15.2791 14.1818H16.853L14.8899 20H13.0178L11.0547 14.1818H12.6286ZM17.4794 20V14.1818H21.5362V15.3239H18.8857V16.517H21.3288V17.6619H18.8857V18.858H21.5362V20H17.4794Z" fill="white"/>
</g>
<defs>
<linearGradient id="paint0_linear_4138_844" x1="1.52588e-05" y1="0" x2="26" y2="26" gradientUnits="userSpaceOnUse">
<stop stop-color="#9E53FF"/>
<stop offset="1" stop-color="#6A3CCF"/>
</linearGradient>
<clipPath id="clip0_4138_844">
<rect width="26" height="26" fill="white"/>
</clipPath>
</defs>
</svg>
