<svg width="24" height="24" viewBox="0 0 24 24" fill="none" xmlns="http://www.w3.org/2000/svg">
<path d="M21 3H9C8.60218 3 8.22064 3.15804 7.93934 3.43934C7.65804 3.72064 7.5 4.10218 7.5 4.5C7.5 4.89782 7.65804 5.27936 7.93934 5.56066C8.22064 5.84196 8.60218 6 9 6H21C21.3978 6 21.7794 5.84196 22.0607 5.56066C22.342 5.27936 22.5 4.89782 22.5 4.5C22.5 4.10218 22.342 3.72064 22.0607 3.43934C21.7794 3.15804 21.3978 3 21 3Z" fill="black"/>
<path d="M3 6C3.82843 6 4.5 5.32843 4.5 4.5C4.5 3.67157 3.82843 3 3 3C2.17157 3 1.5 3.67157 1.5 4.5C1.5 5.32843 2.17157 6 3 6Z" fill="black"/>
<path d="M21 10.5H9C8.60218 10.5 8.22064 10.658 7.93934 10.9393C7.65804 11.2206 7.5 11.6022 7.5 12C7.5 12.3978 7.65804 12.7794 7.93934 13.0607C8.22064 13.342 8.60218 13.5 9 13.5H21C21.3978 13.5 21.7794 13.342 22.0607 13.0607C22.342 12.7794 22.5 12.3978 22.5 12C22.5 11.6022 22.342 11.2206 22.0607 10.9393C21.7794 10.658 21.3978 10.5 21 10.5Z" fill="black"/>
<path d="M3 13.5C3.82843 13.5 4.5 12.8284 4.5 12C4.5 11.1716 3.82843 10.5 3 10.5C2.17157 10.5 1.5 11.1716 1.5 12C1.5 12.8284 2.17157 13.5 3 13.5Z" fill="black"/>
<path d="M21 18H9C8.60218 18 8.22064 18.158 7.93934 18.4393C7.65804 18.7206 7.5 19.1022 7.5 19.5C7.5 19.8978 7.65804 20.2794 7.93934 20.5607C8.22064 20.842 8.60218 21 9 21H21C21.3978 21 21.7794 20.842 22.0607 20.5607C22.342 20.2794 22.5 19.8978 22.5 19.5C22.5 19.1022 22.342 18.7206 22.0607 18.4393C21.7794 18.158 21.3978 18 21 18Z" fill="black"/>
<path d="M3 21C3.82843 21 4.5 20.3284 4.5 19.5C4.5 18.6716 3.82843 18 3 18C2.17157 18 1.5 18.6716 1.5 19.5C1.5 20.3284 2.17157 21 3 21Z" fill="black"/>
</svg>
