<svg width="24" height="24" viewBox="0 0 24 24" fill="none" xmlns="http://www.w3.org/2000/svg">
<path d="M16.0757 0H7.96783C6.58942 0 5.41821 1.12393 5.41821 2.50197V21.5009C5.41821 22.8789 6.56464 24 7.94305 24L16.0643 23.9912C17.4425 23.9912 18.5701 22.87 18.5701 21.4917L18.5819 2.50063C18.5817 1.11764 17.4597 0 16.0757 0ZM10.8505 1.50004H13.2028C13.4094 1.50004 13.5778 1.66779 13.5778 1.875C13.5778 2.08221 13.4094 2.24996 13.2028 2.24996H10.8505C10.8012 2.24998 10.7525 2.24029 10.707 2.22145C10.6615 2.20262 10.6201 2.175 10.5853 2.14018C10.5505 2.10535 10.5229 2.06401 10.504 2.01851C10.4852 1.97301 10.4755 1.92424 10.4755 1.875C10.4755 1.82575 10.4852 1.77698 10.504 1.73148C10.5229 1.68598 10.5505 1.64464 10.5853 1.60982C10.6201 1.575 10.6615 1.54738 10.707 1.52854C10.7525 1.5097 10.8012 1.50002 10.8505 1.50004ZM9.43699 1.61937C9.57596 1.48059 9.82892 1.47869 9.96769 1.61937C10.0382 1.69013 10.078 1.7858 10.0784 1.88567C10.0784 1.98327 10.0373 2.08049 9.96769 2.15007C9.89849 2.21965 9.8007 2.26063 9.70329 2.26063C9.60398 2.26063 9.50847 2.21965 9.43699 2.15007C9.36779 2.08068 9.32833 1.98327 9.32833 1.88567C9.32814 1.78617 9.36779 1.68876 9.43699 1.61937ZM11.951 23.2567C11.3322 23.2567 10.8289 22.7531 10.8289 22.1345C10.8289 21.5158 11.3322 21.0123 11.951 21.0123C12.5697 21.0123 13.073 21.5158 13.073 22.1345C13.073 22.7531 12.5695 23.2567 11.951 23.2567ZM17.4179 20.2496H6.73067V3.56261H17.4179V20.2496Z" fill="black"/>
</svg>
