<svg width="26" height="26" viewBox="0 0 26 26" fill="none" xmlns="http://www.w3.org/2000/svg">
<g clip-path="url(#clip0_4138_841)">
<path d="M2.33189 17.1386L6.3078 24.7593L9.73531 23.2949L4.10861 12.9788L2.33189 17.1386ZM0.229172 22.0605C-0.564589 23.918 0.800779 25.9983 2.829 25.9983C3.21288 25.9983 3.58661 25.9216 3.93952 25.7708L4.90277 25.3595L1.55803 18.9493L0.229172 22.0605ZM5.92341 8.73025L4.87078 11.195L11.1429 22.6937L17.2687 20.0771C13.0411 18.5728 7.42583 12.9666 5.92341 8.73025ZM16.5243 13.9441C16.2273 13.6466 16.2273 13.1642 16.5243 12.8666L18.3869 11.0046C17.4081 9.82421 16.2335 8.63982 14.9954 7.61314L13.1334 9.47567C12.8376 9.77146 12.3545 9.77435 12.0559 9.47567C11.7588 9.17811 11.7588 8.69572 12.0559 8.39817L13.7813 6.67324C12.1151 5.47468 9.04854 3.68851 7.5874 5.14838C5.90056 6.83573 8.35415 11.0544 11.6496 14.3504C14.2083 16.9091 17.3236 18.96 19.3786 18.96C19.9701 18.96 20.4743 18.7899 20.8516 18.4126C22.3103 16.9526 20.5284 13.8891 19.3268 12.2187L17.6018 13.9441C17.3061 14.2399 16.823 14.2428 16.5243 13.9441ZM15.6789 6.92967C17.0489 5.55968 17.2631 3.39552 16.1887 1.78332C15.4549 0.682964 14.0997 0.158935 12.816 0.479852C12.4083 0.581915 12.16 0.995248 12.262 1.4035C12.3641 1.81125 12.7774 2.05955 13.1857 1.95749C13.8458 1.79246 14.5435 2.06209 14.9213 2.62877C15.5941 3.63824 15.46 4.99452 14.6019 5.85267L13.7813 6.67324C14.184 6.96216 14.5902 7.27648 14.9954 7.61314L15.6789 6.92967ZM23.3712 11.0787C23.9379 11.4565 24.2075 12.1542 24.0425 12.8143C23.9404 13.2226 24.1887 13.6359 24.5965 13.738C25.0047 13.84 25.4181 13.5922 25.5201 13.184C25.8411 11.9003 25.317 10.5451 24.2167 9.81132C22.6045 8.73685 20.4403 8.95114 19.0703 10.3211L18.3869 11.0046C18.7235 11.4098 19.0378 11.816 19.3268 12.2187L20.1473 11.3981C21.0055 10.54 22.3618 10.4054 23.3712 11.0787ZM20.039 7.03813L23.8981 3.179C24.1956 2.88155 24.1956 2.39931 23.8981 2.10185C23.6007 1.80439 23.1185 1.80439 22.821 2.10185L18.9619 5.96098C18.6644 6.25843 18.6644 6.74067 18.9619 7.03813C19.2593 7.33559 19.7416 7.33564 20.039 7.03813ZM4.06392 2.79279H4.52092V3.24979C4.52092 3.67043 4.86195 4.01146 5.28259 4.01146C5.70324 4.01146 6.04426 3.67043 6.04426 3.24979V2.79279H6.50126C6.92191 2.79279 7.26293 2.45176 7.26293 2.03112C7.26293 1.61047 6.92191 1.26945 6.50126 1.26945H6.04426V0.761669C6.04426 0.341025 5.70324 0 5.28259 0C4.86195 0 4.52092 0.341025 4.52092 0.761669V1.26945H4.06392C3.64328 1.26945 3.30225 1.61047 3.30225 2.03112C3.30225 2.45176 3.64328 2.79279 4.06392 2.79279ZM25.2383 19.1433H24.7305V18.6863C24.7305 18.2656 24.3895 17.9246 23.9689 17.9246C23.5482 17.9246 23.2072 18.2656 23.2072 18.6863V19.1433H22.7502C22.3296 19.1433 21.9885 19.4843 21.9885 19.905C21.9885 20.3256 22.3296 20.6666 22.7502 20.6666H23.2072V21.1236C23.2072 21.5443 23.5482 21.8853 23.9689 21.8853C24.3895 21.8853 24.7305 21.5443 24.7305 21.1236V20.6666H25.2383C25.659 20.6666 26 20.3256 26 19.905C26 19.4843 25.659 19.1433 25.2383 19.1433ZM19.9077 1.52334C20.3283 1.52334 20.6693 1.18231 20.6693 0.761669C20.6693 0.341025 20.3283 0 19.9077 0C19.4822 0 19.1457 0.345138 19.1457 0.761669C19.1458 1.18231 19.487 1.52334 19.9077 1.52334ZM23.6142 6.9058C23.6142 7.32645 23.9555 7.66747 24.3762 7.66747C24.7968 7.66747 25.1378 7.32645 25.1378 6.9058C25.1378 6.48866 24.8005 6.14413 24.3757 6.14413C23.955 6.14413 23.6142 6.48516 23.6142 6.9058Z" fill="#9D9AC4"/>
</g>
<defs>
<clipPath id="clip0_4138_841">
<rect width="26" height="26" fill="white"/>
</clipPath>
</defs>
</svg>
