<svg width="26" height="26" viewBox="0 0 26 26" fill="none" xmlns="http://www.w3.org/2000/svg">
<path fill-rule="evenodd" clip-rule="evenodd" d="M12.8753 1.73328C11.3812 1.73328 9.94834 2.32679 8.89189 3.38324C7.83543 4.4397 7.24192 5.87256 7.24192 7.36661C7.24192 8.86066 7.83543 10.2935 8.89189 11.35C9.94834 12.4064 11.3812 12.9999 12.8753 12.9999C14.3693 12.9999 15.8022 12.4064 16.8586 11.35C17.9151 10.2935 18.5086 8.86066 18.5086 7.36661C18.5086 5.87256 17.9151 4.4397 16.8586 3.38324C15.8022 2.32679 14.3693 1.73328 12.8753 1.73328ZM12.8753 14.1266C8.41028 14.1266 5.5384 15.7558 4.0174 18.2446C3.07438 19.7881 3.43492 21.397 4.40047 22.5169C5.32546 23.5929 6.81604 24.2666 8.36859 24.2666H17.3819C18.9345 24.2666 20.425 23.5929 21.35 22.5169C22.3156 21.397 22.6761 19.7892 21.7331 18.2446C20.2121 15.7558 17.3402 14.1266 12.8753 14.1266Z" fill="#9D9AC4"/>
</svg>
