<svg width="22" height="22" viewBox="0 0 22 22" fill="none" xmlns="http://www.w3.org/2000/svg">
<path fill-rule="evenodd" clip-rule="evenodd" d="M4.76939 14.7346C3.80196 13.7468 3.14578 12.4967 2.88227 11.1394C2.61657 9.77821 2.75301 8.36919 3.27491 7.08432C3.79235 5.80668 4.67575 4.7104 5.81419 3.93316C8.12399 2.35561 11.1648 2.35561 13.4745 3.93316C14.613 4.7104 15.4964 5.80668 16.0138 7.08432C16.5357 8.36919 16.6722 9.77821 16.4064 11.1394C16.143 12.4967 15.4868 13.7468 14.5193 14.7346C13.2381 16.0493 11.4802 16.7909 9.64432 16.7909C7.80854 16.7909 6.05061 16.0493 4.76939 14.7346Z" stroke="#9D9AC4" stroke-width="1.6" stroke-linecap="round" stroke-linejoin="round"/>
<path d="M9.65206 5.21419C9.1913 5.26301 8.85739 5.67612 8.90616 6.13689C8.95504 6.59766 9.36815 6.9316 9.82891 6.88279L9.65206 5.21419ZM11.7231 7.99868C11.9037 8.42541 12.396 8.62486 12.8228 8.4442C13.2494 8.26356 13.4489 7.77123 13.2682 7.34455L11.7231 7.99868ZM15.2138 14.0334C14.8859 13.7061 14.3546 13.7065 14.0273 14.0345C13.6999 14.3624 13.7005 14.8936 14.0283 15.2209L15.2138 14.0334ZM17.8182 19.0041C18.1462 19.3316 18.6774 19.3311 19.0048 19.0031C19.3321 18.6751 19.3316 18.144 19.0037 17.8166L17.8182 19.0041ZM9.82891 6.88279C10.6371 6.79715 11.4063 7.25025 11.7231 7.99868L13.2682 7.34455C12.6634 5.91571 11.1951 5.05069 9.65206 5.21419L9.82891 6.88279ZM14.0283 15.2209L17.8182 19.0041L19.0037 17.8166L15.2138 14.0334L14.0283 15.2209Z" fill="#9D9AC4"/>
</svg>
