<svg width="30" height="30" viewBox="0 0 30 30" fill="none" xmlns="http://www.w3.org/2000/svg">
<path fill-rule="evenodd" clip-rule="evenodd" d="M12.1145 28.914C1.52393 26.496 5.10953 21.3018 2.98853 15.5919C4.86953 15.4164 7.17952 20.6085 6.77932 18.2061C4.34663 8.6196 13.9061 9.1179 11.5241 0.75C20.9021 2.034 17.4353 10.5558 21.7085 13.0605C22.8992 13.3632 24.4193 12.507 22.0913 7.9065C32.1923 19.7877 25.0289 29.325 15.9395 29.2497C25.5287 26.3619 17.5256 18.0123 13.2884 15.1167C13.0958 19.8615 18.2192 23.2899 14.7134 24.927C14.7974 23.5116 14.81 22.0794 11.3624 19.9962C12.6116 25.4886 8.28052 24.7344 12.1145 28.914Z" fill="white"/>
</svg>
